<?xml version="1.0" encoding="UTF-8" standalone="no"?>
<!-- Created with Inkscape (http://www.inkscape.org/) -->

<svg
   width="183.12448mm"
   height="186.92934mm"
   viewBox="0 0 183.12448 186.92933"
   version="1.1"
   id="svg1"
   xml:space="preserve"
   inkscape:version="1.3.2 (091e20ef0f, 2023-11-25, custom)"
   sodipodi:docname="studsec.svg"
   inkscape:export-filename="Downloads/studsec_with_background.svg"
   inkscape:export-xdpi="96"
   inkscape:export-ydpi="96"
   xmlns:inkscape="http://www.inkscape.org/namespaces/inkscape"
   xmlns:sodipodi="http://sodipodi.sourceforge.net/DTD/sodipodi-0.dtd"
   xmlns="http://www.w3.org/2000/svg"
   xmlns:svg="http://www.w3.org/2000/svg"><sodipodi:namedview
     id="namedview1"
     pagecolor="#ffffff"
     bordercolor="#000000"
     borderopacity="0.25"
     inkscape:showpageshadow="2"
     inkscape:pageopacity="0.0"
     inkscape:pagecheckerboard="0"
     inkscape:deskcolor="#d1d1d1"
     inkscape:document-units="mm"
     inkscape:zoom="1"
     inkscape:cx="562"
     inkscape:cy="488"
     inkscape:window-width="2560"
     inkscape:window-height="1440"
     inkscape:window-x="0"
     inkscape:window-y="0"
     inkscape:window-maximized="0"
     inkscape:current-layer="layer1"
     showgrid="false" /><defs
     id="defs1" /><g
     inkscape:label="Layer 1"
     inkscape:groupmode="layer"
     id="layer1"
     transform="translate(-41.917618,-63.447334)"><circle
       style="fill:#0077b3;fill-opacity:1;stroke:none;stroke-width:0.264583;stroke-opacity:1"
       id="path40"
       cx="133.31876"
       cy="158.71698"
       r="91.284348" /></g><g
     inkscape:groupmode="layer"
     id="layer2"
     inkscape:label="Icon"
     transform="translate(-15.039046,-12.466493)"><path
       style="fill:#ffffff;fill-opacity:1;stroke-width:0.264583"
       d="m 152.75603,142.97878 c -0.46786,0 -1.67572,3.12242 -2.04691,5.29167 -0.3746,2.18918 -0.37343,2.63283 0.0114,4.91029 1.04028,6.15735 4.98081,10.62587 12.26334,13.90613 1.93667,0.87233 6.95334,2.13445 7.28792,1.83348 0.11302,-0.10166 0.0682,-0.83084 -0.0992,-1.62006 -0.36564,-1.72376 -1.59631,-4.90279 -2.54455,-6.57272 -2.25193,-3.96581 -3.84657,-5.95504 -9.02839,-11.26288 -2.35183,-2.40903 -4.58962,-4.85369 -4.97282,-5.43274 -0.3832,-0.57906 -0.77497,-1.05317 -0.87075,-1.05317 z"
       id="path4"
       inkscape:label="wing"
       transform="translate(-30.790719,-47.680938)" /><path
       id="path7"
       style="fill:#ffffff;fill-opacity:1;stroke-width:0.264583"
       d="m 168.61348,184.89104 -3.78478,6.61304 0.0227,0.009 -1.21543,1.72858 c -1.90633,2.71138 -2.01819,2.83622 -2.43603,2.71146 -1.22893,-0.36694 -5.86635,-2.33181 -8.72866,-3.69848 -8.5831,-4.09816 -16.35818,-9.38847 -22.02347,-14.98462 -7.57705,-7.48457 -11.39923,-14.79654 -12.01374,-22.98361 -0.0957,-1.27561 -0.22434,-2.26853 -0.28628,-2.20658 -0.36101,0.36101 -1.16593,4.42493 -1.3808,6.97167 -0.94694,11.22365 3.63436,21.5693 14.04566,31.71796 4.83616,4.71416 10.5589,8.86618 18.17977,13.18989 1.40404,0.79658 2.71671,1.55697 2.91713,1.68982 0.28502,0.18893 0.14093,0.44422 -0.66146,1.17047 -0.5642,0.51068 -1.35914,1.23817 -1.76681,1.61696 -0.37437,0.34784 -0.64857,0.56687 -0.94878,0.66507 l -6.55981,4.73873 c 0.002,0.002 0.0316,0.0212 0.0326,0.0227 0.0658,0.10648 -0.96499,0.91044 -2.2903,1.78645 l -2.40968,1.59267 -2.80189,-1.85518 c -17.01031,-11.26298 -28.06945,-24.69986 -33.137,-40.26129 -2.868133,-8.80748 -3.643982,-14.44489 -3.847825,-27.9647 l -0.150379,-9.97252 1.383895,-0.0816 1.383899,-0.0811 0.60564,-1.9141 c 0.33309,-1.05278 0.6807,-2.21365 0.77257,-2.57968 l 0.16743,-0.6656 h -4.926833 -4.926831 l 0.121956,11.84011 c 0.134893,13.10669 0.443828,17.16646 1.826245,24.01093 0.773716,3.83075 2.992216,10.89211 4.655013,14.81667 1.70918,4.03402 4.79511,9.61316 7.17114,12.96458 3.68693,5.2005 4.49597,6.18598 8.3628,10.18646 6.12321,6.33488 10.74583,9.96893 21.96971,17.2713 1.31509,0.85561 1.35125,0.85726 2.49908,0.10129 11.02589,-7.26192 16.62655,-11.67485 22.07514,-17.39377 11.34958,-11.91269 17.99671,-24.97693 20.653,-40.59236 1.19311,-7.0139 1.47175,-11.42502 1.47175,-23.2885 v -9.91671 h -11.1125 c -6.11187,0 -11.2018,-6.2e-4 -11.31094,-10e-4 -0.10914,-6.8e-4 -0.23242,1.18993 -0.27389,2.64583 l -0.0754,2.64739 h 8.6434 8.64391 l -0.15503,9.85573 c -0.0968,6.17115 -0.3014,11.04271 -0.54777,13.03072 -0.47251,3.81293 -1.52643,8.94539 -2.48047,12.07937 l -0.69711,2.28978 -0.93948,-0.1235 c -4.89026,-0.64418 -9.94926,-2.0974 -13.37489,-3.84215 -5.43615,-2.76872 -9.65878,-7.11478 -11.80032,-12.14447 -2.33395,-5.48169 -1.51121,-13.11456 1.90066,-17.63355 1.40654,-1.86295 1.42336,-1.9383 0.77308,-3.44992 -0.31051,-0.7218 -0.76877,-2.4705 -1.01854,-3.88607 l -0.45424,-2.574 -1.603,1.20509 c -2.35146,1.76763 -5.31197,4.57746 -6.45955,6.13089 -2.92786,3.96332 -4.27375,8.02883 -4.28812,12.9527 -0.008,2.89886 0.0645,3.39006 0.84078,5.64617 1.9541,5.67915 5.57291,9.85505 12.45196,14.36966 5.72339,3.75619 11.96791,6.46724 18.52083,8.04086 1.52797,0.36692 2.92823,0.76039 3.11144,0.87436 0.2486,0.15465 0.0145,0.82384 -0.92294,2.63757 -0.54934,1.06292 -1.09751,1.9454 -1.39217,2.27324 z"
       inkscape:label="shield and body"
       transform="translate(-30.790719,-47.680938)" /><g
       id="g9"
       style="fill:#66afd4;fill-opacity:1"
       transform="translate(8.8492391,-23.725812)"><path
         id="path3"
         style="display:inline;fill:#66afd4;fill-opacity:1;stroke-width:0.264583"
         d="m 102.33277,189.90844 6.55981,-4.73873 c -0.64647,0.21147 -1.42519,-0.19469 -3.66644,-1.48518 -11.24653,-6.47562 -20.517934,-14.63008 -26.136911,-22.98826 -3.386184,-5.03693 -6.293864,-12.27383 -6.987687,-17.39222 -1.599499,-11.79967 3.074847,-23.57939 13.252938,-33.39951 2.442457,-2.35655 6.020075,-5.19484 7.975741,-6.32675 0.697799,-0.40388 1.217448,-0.78501 1.154968,-0.84749 -0.16329,-0.16329 -4.186363,0.89301 -5.809981,1.52549 -6.451999,2.51338 -13.080619,7.78451 -17.099215,13.59762 -4.749698,6.87069 -7.094864,15.74639 -6.362919,24.0807 0.797822,9.08444 4.136025,16.96228 10.900626,25.72504 5.424016,7.0262 13.79234,14.38309 22.627563,19.89285 1.899267,1.18442 3.481877,2.22393 3.591507,2.35644 z" /><path
         id="path9"
         style="fill:#66afd4;fill-opacity:1;stroke-width:0.264583"
         d="m 109.32976,100.88222 c -0.23476,-0.23477 -5.74453,1.86868 -7.85895,3.00033 -11.715889,6.27042 -17.977272,14.70879 -17.989601,24.24452 -0.0029,2.22253 0.943872,6.54644 1.982825,9.05629 3.150306,7.61033 10.089771,15.04978 19.520256,20.92586 3.81072,2.37441 11.55588,6.17219 16.10393,7.89615 l 4.11706,1.56012 3.78478,-6.61304 c -0.0759,0.0844 -0.14654,0.1571 -0.18241,0.1571 -0.69396,0 -6.72619,-1.9588 -9.38444,-3.04736 -5.29914,-2.17001 -10.91832,-5.26678 -15.04198,-8.28993 -3.09017,-2.2655 -7.827163,-7.21906 -9.513119,-9.94772 -4.35819,-7.05353 -4.775348,-15.90267 -1.089856,-23.12675 2.687774,-5.2684 7.398645,-10.21847 13.726295,-14.42393 1.06288,-0.7064 1.8842,-1.33266 1.82521,-1.39164 z" /></g><path
       style="fill:#ffffff;fill-opacity:1;stroke-width:0.264583"
       d="m 159.00681,107.28224 c -0.89294,-0.0911 -1.23691,0.60878 -2.40089,2.55747 -1.48004,2.47781 -1.6885,2.71203 -2.41432,2.71198 -0.74172,-6e-5 -5.80891,-0.78808 -7.74165,-1.20406 -0.7927,-0.17061 -0.88481,-0.11963 -1.14773,0.63458 -0.31379,0.90012 -1.48062,1.73412 -2.82257,2.01797 -0.63379,0.13406 -1.18885,0.0254 -2.08566,-0.40876 -1.05672,-0.51155 -1.32488,-0.81845 -1.98334,-2.27066 -0.88814,-1.95874 -0.64057,-1.8989 -5.32216,-1.2852 -4.50739,0.59086 -8.90263,2.26644 -13.16095,5.01727 -2.29767,1.48427 -5.65677,4.35923 -7.23728,6.19445 -1.7071,1.9822 -4.18198,5.70842 -4.77129,7.18355 -0.26075,0.6527 -0.58557,1.32171 -0.72192,1.48673 -0.60706,0.73466 -2.39715,7.0448 -2.88044,10.1539 -0.59478,3.82636 -0.64652,4.7594 -0.26407,4.7594 0.14552,0 0.26458,-0.12972 0.26458,-0.28835 0,-0.40104 3.03376,-5.32985 4.46382,-7.25227 1.98489,-2.6683 6.82971,-7.26531 9.5591,-9.07025 4.6358,-3.06564 9.64328,-5.229 14.55208,-6.28645 2.58101,-0.556 8.01433,-0.80608 9.36067,-0.43098 0.86717,0.24159 1.18313,0.20546 2.03967,-0.23151 3.30573,-1.68646 10.72978,-2.25641 14.42755,-1.10794 3.13394,0.97336 4.77302,3.04659 4.55682,5.76503 -0.0642,0.80752 0.009,1.17564 0.23358,1.17564 0.64696,0 3.17894,-2.91617 4.06435,-4.68086 0.85703,-1.70813 0.90382,-1.94549 0.90382,-4.57957 0,-2.47529 -0.0773,-2.93675 -0.70951,-4.23333 -1.20738,-2.47644 -2.96998,-3.99757 -6.26629,-5.40845 -1.22681,-0.5251 -1.96021,-0.86469 -2.49597,-0.91933 z"
       id="path2"
       inkscape:label="beak"
       transform="translate(-30.790719,-47.680938)" /><path
       style="fill:#f9f9f9;fill-opacity:1;stroke-width:0.264583"
       d="m 107.06683,87.224038 c -0.0381,0.0381 0.1634,0.936405 0.44752,1.995744 1.20077,4.477117 4.64476,8.695552 8.83977,10.828278 2.25992,1.14895 4.55979,1.68442 8.07134,1.87844 l 3.30729,0.18242 -2.096,0.99167 c -1.15267,0.54548 -3.1172,1.24857 -4.36562,1.56218 -4.31824,1.08476 -10.58548,0.58289 -14.37328,-1.15084 -0.6908,-0.31619 -1.32977,-0.50113 -1.41956,-0.41134 -0.30287,0.30287 0.98084,2.02143 2.62723,3.51761 2.21238,2.01051 4.27613,3.02891 7.19181,3.54966 2.64966,0.47323 3.0665,0.4171 6.21771,-0.83975 1.09141,-0.4353 2.63922,-1.06979 3.43958,-1.41025 2.03449,-0.86539 6.29797,-1.93077 9.12451,-2.27944 4.92097,-0.60703 11.87093,0.36486 16.11013,2.25257 0.85485,0.38067 1.70856,0.69195 1.89756,0.69195 0.40476,0 2.76572,-3.45714 2.76572,-4.04988 0,-0.64451 -2.00045,-2.18746 -4.47311,-3.45044 -4.11896,-2.103864 -7.5352,-2.84149 -16.08997,-3.47472 -7.22351,-0.534679 -9.15606,-0.802435 -12.64213,-1.749764 -4.83476,-1.313848 -9.62966,-4.025877 -13.24932,-7.494116 -0.69405,-0.665019 -1.29311,-1.178052 -1.33118,-1.139982 z"
       id="path1"
       inkscape:label="head"
       transform="translate(-30.790719,-47.680938)" /></g></svg>
